<svg xmlns="http://www.w3.org/2000/svg" xmlns:xlink="http://www.w3.org/1999/xlink" width="100" zoomAndPan="magnify" viewBox="0 0 375 374.999991" height="100" preserveAspectRatio="xMidYMid meet" version="1.0"><defs><g/><clipPath id="2cf29bc0d6"><path d="M 263 230 L 296.78125 230 L 296.78125 250 L 263 250 Z M 263 230 " clip-rule="nonzero"/></clipPath><clipPath id="b1a0eebc2d">
</clipPath></defs><path fill="#ceaa72" d="M 277.644531 225.792969 C 270.574219 243.515625 258.074219 259 242.289062 269.695312 C 238.320312 272.339844 234.1875 274.722656 229.90625 276.808594 C 225.597656 278.859375 221.148438 280.566406 216.601562 282 C 212.046875 283.394531 207.382812 284.410156 202.675781 285.152344 C 197.960938 285.84375 193.203125 286.152344 188.445312 286.210938 L 188.445312 285.1875 C 193.160156 285.128906 197.867188 284.828125 202.53125 284.136719 C 207.1875 283.402344 211.800781 282.402344 216.304688 281.019531 C 220.796875 279.601562 225.207031 277.910156 229.460938 275.886719 C 233.699219 273.820312 237.792969 271.46875 241.707031 268.847656 C 257.320312 258.265625 269.6875 242.941406 276.6875 225.410156 Z M 277.644531 225.792969 " fill-opacity="1" fill-rule="nonzero"/><path fill="#ceaa72" d="M 248.027344 234.871094 C 248.027344 234.871094 247.90625 235.324219 247.71875 236.023438 C 247.523438 236.726562 247.292969 237.707031 246.996094 238.722656 C 246.679688 239.742188 246.347656 240.800781 246.066406 241.695312 C 245.792969 242.617188 245.503906 243.328125 245.390625 243.730469 C 243.8125 249.222656 242.144531 255.019531 239.992188 260.972656 C 238.902344 263.996094 237.675781 267.027344 236.308594 270.105469 C 236.097656 270.554688 235.910156 271.015625 235.722656 271.488281 L 235.40625 272.289062 C 235.320312 272.503906 235.277344 272.75 235.558594 272.863281 C 235.6875 272.914062 235.832031 272.863281 235.960938 272.792969 C 236.503906 272.496094 236.863281 271.886719 237.222656 271.417969 C 237.613281 270.921875 237.957031 270.367188 238.304688 269.839844 C 241.902344 264.3125 245.230469 258.589844 247.191406 252.664062 C 249.179688 246.742188 249.757812 240.679688 248.027344 234.871094 Z M 248.027344 234.871094 " fill-opacity="1" fill-rule="nonzero"/><path fill="#ceaa72" d="M 256.246094 256.703125 C 257.320312 250.484375 258.421875 244.148438 259.53125 237.734375 C 260.597656 231.6875 261.636719 225.9375 262.804688 220.386719 C 265.066406 225.628906 264.648438 231.609375 263.1875 237.261719 C 261.765625 242.925781 259.972656 249.359375 258.285156 255.40625 Z M 256.246094 256.703125 " fill-opacity="1" fill-rule="nonzero"/><path fill="#ceaa72" d="M 274.003906 232.488281 C 273.984375 232.191406 274.128906 231.667969 274.15625 231.558594 C 274.308594 230.898438 274.421875 230.226562 274.566406 229.566406 C 274.820312 228.234375 275.179688 226.964844 275.417969 225.640625 C 275.671875 224.324219 275.996094 223.035156 276.277344 221.734375 C 276.535156 220.429688 276.824219 219.140625 277.140625 217.859375 C 278.273438 212.691406 279.441406 207.582031 280.671875 202.433594 C 281.71875 198.316406 282.597656 194.164062 283.742188 189.964844 C 285.855469 196.855469 285.921875 204.601562 283.886719 211.734375 C 282.316406 217.269531 279.613281 222.308594 277.105469 227.332031 C 276.628906 228.253906 276.152344 229.175781 275.714844 230.125 C 275.359375 230.910156 275.078125 232.054688 274.359375 232.589844 C 274.105469 232.789062 274.011719 232.695312 274.003906 232.488281 Z M 274.003906 232.488281 " fill-opacity="1" fill-rule="nonzero"/><path fill="#ceaa72" d="M 281.488281 234.195312 C 286.726562 228.234375 291.203125 221.105469 293.699219 213.082031 C 293.265625 214.390625 291.089844 216.175781 290.171875 217.175781 C 288.960938 218.515625 287.84375 219.882812 286.675781 221.207031 C 284.347656 223.886719 281.992188 226.585938 279.628906 229.304688 C 277.386719 231.882812 275.128906 234.480469 272.859375 237.085938 C 271.957031 238.09375 271 239.101562 270.0625 240.117188 C 269.117188 241.125 268.253906 242.191406 267.648438 243.414062 C 270.097656 242.421875 272.84375 241.566406 275.128906 239.996094 C 277.394531 238.542969 279.289062 236.589844 281.175781 234.5625 Z M 281.488281 234.195312 " fill-opacity="1" fill-rule="nonzero"/><path fill="#ceaa72" d="M 265.542969 246.101562 C 268.074219 240.671875 267.683594 234.554688 267.050781 228.988281 C 266.941406 227.613281 266.726562 226.1875 266.625 224.8125 C 266.566406 224.117188 266.539062 223.445312 266.496094 222.761719 C 266.445312 222.078125 266.421875 221.394531 266.414062 220.738281 C 266.414062 220.070312 266.4375 219.414062 266.488281 218.773438 C 266.53125 218.121094 266.574219 217.472656 266.675781 216.84375 C 266.871094 215.578125 267.238281 214.363281 267.699219 213.160156 C 268.585938 215.058594 269.269531 216.988281 269.910156 219.019531 C 270.242188 220.042969 270.445312 221.050781 270.660156 222.09375 C 270.855469 223.136719 271.035156 224.203125 271.101562 225.273438 C 271.589844 232.003906 269.292969 238.828125 266.257812 245.171875 Z M 265.542969 246.101562 " fill-opacity="1" fill-rule="nonzero"/><g clip-path="url(#2cf29bc0d6)"><path fill="#ceaa72" d="M 263.921875 248.691406 C 265.226562 249.683594 266.8125 250.007812 268.5 249.921875 C 270.15625 249.808594 271.894531 249.261719 273.507812 248.613281 C 282.214844 245.070312 289.964844 238.324219 296.804688 230.386719 C 291.492188 234.027344 286.101562 237.304688 280.796875 240.269531 C 275.425781 243.199219 270.089844 245.777344 264.835938 248.035156 Z M 263.921875 248.691406 " fill-opacity="1" fill-rule="nonzero"/></g><path fill="#ceaa72" d="M 257.441406 256.761719 C 259.359375 258.007812 261.578125 258.703125 263.949219 258.898438 C 266.277344 259.050781 268.730469 258.683594 271.101562 257.890625 C 275.757812 256.222656 280.082031 252.945312 283.757812 249.066406 C 275.375 253.199219 266.644531 255.257812 258.285156 255.414062 Z M 257.441406 256.761719 " fill-opacity="1" fill-rule="nonzero"/><path fill="#ceaa72" d="M 271.375 261.765625 C 275.886719 262.203125 280.457031 263.226562 285.164062 261.253906 C 281.984375 263.398438 278.605469 264.464844 275.160156 264.894531 C 271.769531 265.371094 268.3125 265.234375 265.039062 265.167969 C 262.21875 265.089844 259.359375 265.003906 256.503906 264.925781 C 256.078125 264.910156 254.3125 264.917969 252.742188 264.773438 C 251.171875 264.628906 249.800781 264.320312 250.003906 263.800781 C 250.191406 263.332031 251.582031 263.03125 253.082031 262.808594 C 254.585938 262.597656 256.136719 262.382812 256.613281 262.3125 C 257.75 262.136719 258.90625 261.988281 260.085938 261.878906 C 261.234375 261.75 262.386719 261.65625 263.5625 261.597656 C 264.859375 261.535156 266.183594 261.527344 267.488281 261.554688 C 268.773438 261.578125 270.078125 261.648438 271.375 261.765625 Z M 271.375 261.765625 " fill-opacity="1" fill-rule="nonzero"/><path fill="#ceaa72" d="M 238.261719 271.71875 C 243.328125 269.546875 249.042969 268.890625 254.824219 269.054688 C 257.671875 269.105469 260.589844 269.429688 263.429688 269.753906 C 266.292969 270.105469 269.21875 270.582031 272.074219 270.976562 C 264.484375 274.777344 256.203125 275.605469 249.109375 273.792969 C 247.070312 273.265625 245.035156 272.589844 243.003906 272.144531 C 240.957031 271.675781 239.011719 271.574219 237.058594 272.144531 C 237.460938 272 237.871094 271.878906 238.261719 271.71875 Z M 238.261719 271.71875 " fill-opacity="1" fill-rule="nonzero"/><path fill="#ceaa72" d="M 220.191406 280.003906 C 227.910156 283.164062 236.753906 284.777344 246.058594 284.375 C 255.34375 283.964844 265.082031 281.574219 274.4375 277.089844 C 266.242188 278.542969 258.15625 278.960938 250.472656 278.542969 C 247.925781 278.449219 245.316406 278.140625 242.789062 278.535156 C 239.855469 278.910156 237.078125 280.121094 234.167969 280.308594 C 229.71875 280.675781 225.378906 278.722656 221.308594 279.710938 Z M 220.191406 280.003906 " fill-opacity="1" fill-rule="nonzero"/><path fill="#ceaa72" d="M 238.152344 238.886719 C 238.289062 239.492188 238.21875 241.390625 238.082031 243.371094 C 238.03125 244.371094 237.914062 245.335938 237.8125 246.121094 C 237.707031 246.921875 237.632812 247.539062 237.605469 247.777344 C 237.453125 249.765625 237.050781 251.636719 236.601562 253.59375 C 236.378906 254.601562 235.847656 256.171875 235.167969 258.179688 C 234.835938 259.195312 234.382812 260.203125 233.929688 261.324219 C 233.46875 262.425781 232.976562 263.605469 232.402344 264.707031 C 231.851562 265.824219 231.269531 266.96875 230.679688 268.0625 C 230.066406 269.113281 229.460938 270.136719 228.875 271.085938 C 228.574219 271.554688 228.292969 272.007812 228.019531 272.445312 C 227.730469 272.855469 227.457031 273.238281 227.210938 273.589844 C 226.699219 274.296875 226.246094 274.886719 225.90625 275.3125 C 225.617188 275.679688 224.8125 276.851562 223.902344 277.789062 C 223.007812 278.746094 222.042969 279.558594 221.566406 279.25 C 221.140625 278.96875 221.574219 277.832031 222.136719 276.671875 C 222.699219 275.519531 223.390625 274.347656 223.585938 273.972656 C 224.054688 273.042969 224.933594 271.425781 225.957031 269.582031 C 226.476562 268.675781 226.988281 267.59375 227.527344 266.550781 C 228.054688 265.472656 228.617188 264.433594 229.09375 263.296875 C 229.574219 262.203125 230.058594 261.101562 230.519531 260.042969 C 230.960938 258.984375 231.339844 257.941406 231.695312 257.019531 C 232.421875 255.191406 232.90625 253.628906 233.230469 252.78125 C 233.597656 251.824219 234.042969 250.691406 234.460938 249.433594 C 234.894531 248.1875 235.378906 246.921875 235.789062 245.597656 C 236.675781 243.039062 237.433594 240.515625 238.152344 238.886719 Z M 238.152344 238.886719 " fill-opacity="1" fill-rule="nonzero"/><path fill="#ceaa72" d="M 249.785156 255.984375 C 250.046875 254.902344 250.3125 253.816406 250.578125 252.730469 C 250.824219 251.65625 251.070312 250.578125 251.308594 249.492188 C 251.847656 247.402344 252.246094 245.242188 252.800781 243.242188 C 253.757812 239.125 254.859375 235.273438 256.257812 231.601562 C 256.195312 232.832031 256.152344 234.042969 256.121094 235.265625 C 256.070312 236.46875 255.984375 237.640625 255.90625 238.851562 C 255.847656 240.074219 255.71875 241.269531 255.566406 242.5 C 255.410156 243.730469 255.265625 245.035156 254.984375 246.324219 C 254.703125 247.632812 254.335938 249.1875 253.84375 250.664062 C 253.347656 252.140625 252.878906 253.6875 252.476562 255.019531 L 251.257812 258.992188 C 251.148438 259.351562 250.644531 260.539062 250.175781 261.671875 C 249.691406 262.808594 249.238281 263.851562 249.238281 263.851562 C 248.640625 264.015625 248.804688 262.21875 249.066406 260.316406 C 249.203125 259.359375 249.367188 258.386719 249.511719 257.597656 C 249.636719 256.8125 249.730469 256.191406 249.785156 255.984375 Z M 249.785156 255.984375 " fill-opacity="1" fill-rule="nonzero"/><path fill="#ceaa72" d="M 217.746094 263.363281 C 217.472656 264.167969 217.011719 265.78125 216.335938 267.6875 C 215.65625 269.558594 214.804688 271.886719 213.820312 274.066406 C 212.832031 276.21875 211.777344 278.441406 210.828125 280.078125 C 209.882812 281.738281 209.089844 282.976562 208.75 283.367188 C 208.988281 283.09375 209.710938 282.90625 210.042969 282.71875 C 210.164062 282.648438 210.554688 282.300781 211.066406 281.804688 C 211.316406 281.558594 211.605469 281.273438 211.910156 280.96875 C 212.203125 280.644531 212.507812 280.300781 212.824219 279.960938 C 214.050781 278.566406 215.238281 277.140625 215.519531 276.6875 C 215.800781 276.234375 216.507812 275.058594 217.171875 273.886719 C 217.839844 272.71875 218.46875 271.5625 218.691406 271.035156 C 219.109375 270.113281 219.664062 269.292969 219.988281 268.359375 C 220.328125 267.464844 222.070312 265.191406 223.875 262.109375 C 224.753906 260.519531 225.703125 258.820312 226.433594 256.863281 C 226.808594 255.898438 227.167969 254.933594 227.457031 253.917969 C 227.738281 252.886719 227.976562 251.84375 228.148438 250.800781 C 228.4375 249.230469 228.394531 247.488281 228.34375 245.847656 C 226.382812 248.460938 224.148438 250.636719 222.308594 253.621094 C 221.386719 254.984375 220.59375 256.589844 219.808594 258.171875 C 219.03125 259.792969 218.359375 261.570312 217.746094 263.363281 Z M 217.746094 263.363281 " fill-opacity="1" fill-rule="nonzero"/><g clip-path="url(#b1a0eebc2d)"><path fill="#ceaa72" d="M 218.308594 289.125 C 220.449219 291.046875 222.964844 292.558594 225.753906 293.726562 C 227.140625 294.308594 228.566406 294.703125 230.042969 295.019531 C 231.507812 295.316406 233.027344 295.53125 234.492188 295.511719 C 235.996094 295.523438 237.425781 295.53125 238.824219 295.539062 C 240.234375 295.53125 241.613281 295.511719 242.976562 295.503906 C 245.765625 295.539062 248.496094 295.460938 251.546875 295.511719 C 244.488281 294.070312 237.777344 292.035156 231.066406 290.480469 C 228.617188 289.875 226.160156 289.347656 224.039062 288.261719 C 223.050781 287.730469 219.742188 285.972656 216.984375 284.460938 C 214.207031 282.921875 211.953125 281.804688 212.390625 283.113281 C 212.542969 283.554688 213.746094 284.871094 215.066406 286.160156 C 216.40625 287.449219 217.855469 288.722656 218.308594 289.125 Z M 218.308594 289.125 " fill-opacity="1" fill-rule="nonzero"/></g><g clip-path="url(#85bd5a518b)"><path fill="#ceaa72" d="M 181.800781 286.289062 C 181.785156 286.289062 181.765625 286.289062 181.75 286.289062 C 131.445312 282.839844 92.03125 240.515625 92.03125 189.953125 C 92.03125 136.710938 135.28125 93.390625 188.445312 93.390625 C 212.714844 93.390625 235.898438 102.453125 253.742188 118.910156 C 271.46875 135.265625 282.394531 157.472656 284.484375 181.429688 C 284.515625 181.808594 284.234375 182.140625 283.859375 182.164062 C 283.492188 182.199219 283.152344 181.917969 283.125 181.542969 C 281.0625 157.925781 270.300781 136.035156 252.820312 119.902344 C 235.234375 103.691406 212.371094 94.757812 188.445312 94.757812 C 136.03125 94.757812 93.394531 137.460938 93.394531 189.953125 C 93.394531 239.808594 132.246094 281.523438 181.851562 284.929688 C 182.226562 284.957031 182.507812 285.28125 182.484375 285.65625 C 182.457031 286.015625 182.160156 286.289062 181.800781 286.289062 Z M 181.800781 286.289062 " fill-opacity="1" fill-rule="nonzero"/></g><g fill="#ceaa72" fill-opacity="1"><g transform="translate(100.83256, 196.155573)"><g><path d="M 18 0 L 18 -0.601562 C 12.839844 -0.601562 12.480469 -4.859375 12.480469 -16.679688 L 12.480469 -29.460938 C 12.480469 -32.28125 13.558594 -34.738281 16.679688 -34.738281 C 20.941406 -34.738281 25.679688 -29.460938 33 -29.460938 C 37.738281 -29.460938 40.679688 -32.519531 40.679688 -36.058594 L 40.078125 -36.058594 C 40.078125 -33.960938 37.921875 -32.640625 35.640625 -32.640625 C 30.359375 -32.640625 25.378906 -36.359375 19.441406 -36.359375 C 15.839844 -36.359375 13.199219 -34.441406 12.480469 -32.820312 L 12.480469 -43.320312 C 12.480469 -55.140625 12.839844 -59.398438 18 -59.398438 L 18 -60 L 1.800781 -60 L 1.800781 -59.398438 C 6.960938 -59.398438 7.320312 -55.140625 7.320312 -43.320312 L 7.320312 -16.679688 C 7.320312 -4.859375 6.960938 -0.601562 1.800781 -0.601562 L 1.800781 0 Z M 36.960938 -59.398438 C 42.121094 -59.398438 42.480469 -55.140625 42.480469 -43.320312 L 42.480469 -16.679688 C 42.480469 -4.859375 42.121094 -0.601562 36.960938 -0.601562 L 36.960938 0 L 53.160156 0 L 53.160156 -0.601562 C 48 -0.601562 47.640625 -4.859375 47.640625 -16.679688 L 47.640625 -43.320312 C 47.640625 -55.140625 48 -59.398438 53.160156 -59.398438 L 53.160156 -60 L 36.960938 -60 Z M 36.960938 -59.398438 "/></g></g></g><g fill="#ceaa72" fill-opacity="1"><g transform="translate(155.79251, 196.155573)"><g><path d="M 1.800781 -59.398438 C 6.960938 -59.398438 7.320312 -55.140625 7.320312 -43.320312 L 7.320312 -16.679688 C 7.320312 -4.558594 16.558594 1.199219 27.601562 1.199219 C 38.640625 1.199219 47.640625 -4.679688 47.640625 -16.679688 L 47.640625 -43.320312 C 47.640625 -55.140625 48 -59.398438 53.160156 -59.398438 L 53.160156 -60 L 36.960938 -60 L 36.960938 -59.398438 C 42.121094 -59.398438 42.480469 -55.140625 42.480469 -43.320312 L 42.480469 -16.679688 C 42.480469 -5.101562 36.121094 0.601562 27.601562 0.601562 C 19.078125 0.601562 12.480469 -5.039062 12.480469 -16.679688 L 12.480469 -43.320312 C 12.480469 -55.140625 12.839844 -59.398438 18 -59.398438 L 18 -60 L 1.800781 -60 Z M 1.800781 -59.398438 "/></g></g></g><g fill="#ceaa72" fill-opacity="1"><g transform="translate(210.75246, 196.155573)"><g><path d="M 3.601562 -30 C 3.601562 -12 15.359375 1.199219 30.300781 1.199219 C 38.878906 1.199219 46.019531 -3.121094 50.578125 -10.679688 L 50.578125 -19.320312 C 50.578125 -28.921875 42 -30 33.78125 -30 C 26.21875 -30 18.898438 -29.039062 18.898438 -33.058594 C 18.898438 -35.878906 22.320312 -37.140625 26.039062 -37.140625 C 31.980469 -37.140625 40.078125 -31.378906 47.28125 -31.378906 C 51 -31.378906 54.300781 -33.480469 53.339844 -37.261719 C 53.339844 -37.261719 53.160156 -35.460938 48.960938 -35.460938 C 41.21875 -35.460938 36.300781 -40.921875 27.359375 -40.921875 C 23.761719 -40.921875 18.238281 -38.460938 18.238281 -33.359375 C 18.238281 -29.820312 21.660156 -29.28125 26.039062 -29.28125 C 34.078125 -29.28125 45.421875 -31.019531 45.421875 -19.320312 L 45.421875 -10.859375 C 45.421875 -8.699219 40.859375 0.480469 30.300781 0.480469 C 18.71875 0.480469 9 -12.480469 9 -30 C 9 -47.519531 17.878906 -60.480469 30.300781 -60.480469 C 43.140625 -60.480469 46.800781 -50.398438 46.800781 -50.398438 L 47.398438 -50.398438 L 47.398438 -58.441406 C 42.78125 -60 37.679688 -61.199219 30.300781 -61.199219 C 15.359375 -61.199219 3.601562 -48 3.601562 -30 Z M 3.601562 -30 "/></g></g></g><g fill="#ceaa72" fill-opacity="1"><g transform="translate(134.532241, 219.765)"><g><path d="M 15.546875 -7 C 15.546875 -5.894531 15.3125 -4.859375 14.84375 -3.890625 C 14.375 -2.921875 13.734375 -2.097656 12.921875 -1.421875 L 15.421875 1.5 L 13.515625 1.5 L 11.703125 -0.625 C 10.648438 -0.0703125 9.519531 0.203125 8.3125 0.203125 C 7 0.203125 5.785156 -0.113281 4.671875 -0.75 C 3.566406 -1.394531 2.691406 -2.269531 2.046875 -3.375 C 1.410156 -4.488281 1.09375 -5.695312 1.09375 -7 C 1.09375 -8.300781 1.410156 -9.503906 2.046875 -10.609375 C 2.691406 -11.722656 3.566406 -12.597656 4.671875 -13.234375 C 5.785156 -13.878906 7 -14.203125 8.3125 -14.203125 C 9.632812 -14.203125 10.847656 -13.878906 11.953125 -13.234375 C 13.066406 -12.597656 13.941406 -11.722656 14.578125 -10.609375 C 15.222656 -9.503906 15.546875 -8.300781 15.546875 -7 Z M 8.3125 -1.296875 C 9.15625 -1.296875 9.945312 -1.46875 10.6875 -1.8125 L 7.625 -5.40625 L 9.515625 -5.40625 L 11.90625 -2.625 C 12.53125 -3.15625 13.015625 -3.796875 13.359375 -4.546875 C 13.703125 -5.304688 13.875 -6.125 13.875 -7 C 13.875 -8.050781 13.625 -9.007812 13.125 -9.875 C 12.625 -10.75 11.953125 -11.4375 11.109375 -11.9375 C 10.265625 -12.445312 9.332031 -12.703125 8.3125 -12.703125 C 7.300781 -12.703125 6.375 -12.445312 5.53125 -11.9375 C 4.6875 -11.4375 4.015625 -10.75 3.515625 -9.875 C 3.015625 -9.007812 2.765625 -8.050781 2.765625 -7 C 2.765625 -5.945312 3.015625 -4.984375 3.515625 -4.109375 C 4.015625 -3.242188 4.6875 -2.554688 5.53125 -2.046875 C 6.375 -1.546875 7.300781 -1.296875 8.3125 -1.296875 Z M 8.3125 -1.296875 "/></g></g></g><g fill="#ceaa72" fill-opacity="1"><g transform="translate(152.16568, 219.765)"><g><path d="M 10.09375 0 L 5.140625 -6 L 3.5 -6 L 3.5 0 L 1.90625 0 L 1.90625 -14 L 6 -14 C 6.894531 -14 7.6875 -13.820312 8.375 -13.46875 C 9.0625 -13.125 9.59375 -12.648438 9.96875 -12.046875 C 10.351562 -11.441406 10.546875 -10.757812 10.546875 -10 C 10.546875 -9 10.226562 -8.140625 9.59375 -7.421875 C 8.957031 -6.710938 8.109375 -6.265625 7.046875 -6.078125 L 12.09375 0 Z M 3.5 -12.5 L 3.5 -7.5 L 6 -7.5 C 6.875 -7.5 7.570312 -7.722656 8.09375 -8.171875 C 8.613281 -8.628906 8.875 -9.238281 8.875 -10 C 8.875 -10.757812 8.613281 -11.363281 8.09375 -11.8125 C 7.570312 -12.269531 6.875 -12.5 6 -12.5 Z M 3.5 -12.5 "/></g></g></g><g fill="#ceaa72" fill-opacity="1"><g transform="translate(165.360871, 219.765)"><g/></g></g><g fill="#ceaa72" fill-opacity="1"><g transform="translate(171.95867, 219.765)"><g><path d="M 8.21875 0.203125 C 6.925781 0.203125 5.734375 -0.113281 4.640625 -0.75 C 3.546875 -1.394531 2.679688 -2.269531 2.046875 -3.375 C 1.410156 -4.488281 1.09375 -5.695312 1.09375 -7 C 1.09375 -8.300781 1.410156 -9.503906 2.046875 -10.609375 C 2.679688 -11.722656 3.546875 -12.597656 4.640625 -13.234375 C 5.734375 -13.878906 6.925781 -14.203125 8.21875 -14.203125 C 9.695312 -14.203125 10.992188 -13.796875 12.109375 -12.984375 C 13.234375 -12.179688 14.078125 -11.085938 14.640625 -9.703125 L 12.9375 -9.703125 C 12.46875 -10.617188 11.820312 -11.347656 11 -11.890625 C 10.1875 -12.429688 9.257812 -12.703125 8.21875 -12.703125 C 7.226562 -12.703125 6.3125 -12.445312 5.46875 -11.9375 C 4.632812 -11.4375 3.972656 -10.75 3.484375 -9.875 C 3.003906 -9.007812 2.765625 -8.050781 2.765625 -7 C 2.765625 -5.945312 3.003906 -4.984375 3.484375 -4.109375 C 3.972656 -3.242188 4.632812 -2.554688 5.46875 -2.046875 C 6.3125 -1.546875 7.226562 -1.296875 8.21875 -1.296875 C 9.300781 -1.296875 10.253906 -1.566406 11.078125 -2.109375 C 11.898438 -2.648438 12.546875 -3.378906 13.015625 -4.296875 L 14.71875 -4.296875 C 14.15625 -2.910156 13.3125 -1.8125 12.1875 -1 C 11.0625 -0.195312 9.738281 0.203125 8.21875 0.203125 Z M 8.21875 0.203125 "/></g></g></g><g fill="#ceaa72" fill-opacity="1"><g transform="translate(188.472557, 219.765)"><g><path d="M 8.3125 0.203125 C 7 0.203125 5.785156 -0.113281 4.671875 -0.75 C 3.566406 -1.394531 2.691406 -2.269531 2.046875 -3.375 C 1.410156 -4.488281 1.09375 -5.695312 1.09375 -7 C 1.09375 -8.300781 1.410156 -9.503906 2.046875 -10.609375 C 2.691406 -11.722656 3.566406 -12.597656 4.671875 -13.234375 C 5.785156 -13.878906 7 -14.203125 8.3125 -14.203125 C 9.632812 -14.203125 10.847656 -13.878906 11.953125 -13.234375 C 13.066406 -12.597656 13.941406 -11.722656 14.578125 -10.609375 C 15.222656 -9.503906 15.546875 -8.300781 15.546875 -7 C 15.546875 -5.695312 15.222656 -4.488281 14.578125 -3.375 C 13.941406 -2.269531 13.066406 -1.394531 11.953125 -0.75 C 10.847656 -0.113281 9.632812 0.203125 8.3125 0.203125 Z M 8.3125 -1.296875 C 9.332031 -1.296875 10.265625 -1.546875 11.109375 -2.046875 C 11.953125 -2.554688 12.625 -3.242188 13.125 -4.109375 C 13.625 -4.984375 13.875 -5.945312 13.875 -7 C 13.875 -8.050781 13.625 -9.007812 13.125 -9.875 C 12.625 -10.75 11.953125 -11.4375 11.109375 -11.9375 C 10.265625 -12.445312 9.332031 -12.703125 8.3125 -12.703125 C 7.300781 -12.703125 6.375 -12.445312 5.53125 -11.9375 C 4.6875 -11.4375 4.015625 -10.75 3.515625 -9.875 C 3.015625 -9.007812 2.765625 -8.050781 2.765625 -7 C 2.765625 -5.945312 3.015625 -4.984375 3.515625 -4.109375 C 4.015625 -3.242188 4.6875 -2.554688 5.53125 -2.046875 C 6.375 -1.546875 7.300781 -1.296875 8.3125 -1.296875 Z M 8.3125 -1.296875 "/></g></g></g><g fill="#ceaa72" fill-opacity="1"><g transform="translate(206.105996, 219.765)"><g><path d="M 1.90625 0 L 1.90625 -14 L 5.59375 -14 C 7.15625 -14 8.515625 -13.707031 9.671875 -13.125 C 10.835938 -12.550781 11.734375 -11.734375 12.359375 -10.671875 C 12.992188 -9.609375 13.3125 -8.382812 13.3125 -7 C 13.3125 -5.613281 12.992188 -4.390625 12.359375 -3.328125 C 11.734375 -2.265625 10.835938 -1.441406 9.671875 -0.859375 C 8.515625 -0.285156 7.15625 0 5.59375 0 Z M 5.59375 -1.5 C 6.832031 -1.5 7.910156 -1.722656 8.828125 -2.171875 C 9.742188 -2.628906 10.441406 -3.273438 10.921875 -4.109375 C 11.410156 -4.941406 11.65625 -5.90625 11.65625 -7 C 11.65625 -8.09375 11.410156 -9.054688 10.921875 -9.890625 C 10.441406 -10.722656 9.742188 -11.363281 8.828125 -11.8125 C 7.910156 -12.269531 6.832031 -12.5 5.59375 -12.5 L 3.5 -12.5 L 3.5 -1.5 Z M 5.59375 -1.5 "/></g></g></g><g fill="#ceaa72" fill-opacity="1"><g transform="translate(221.520311, 219.765)"><g><path d="M 3.5 -6.5 L 3.5 -1.5 L 9.5 -1.5 L 9.5 0 L 1.90625 0 L 1.90625 -14 L 9.296875 -14 L 9.296875 -12.5 L 3.5 -12.5 L 3.5 -8 L 9.09375 -8 L 9.09375 -6.5 Z M 3.5 -6.5 "/></g></g></g></svg>